<svg id="Calque_1" data-name="Calque 1" xmlns="http://www.w3.org/2000/svg" viewBox="0 0 383.56 479.11"><defs><style>.cls-1{fill:#fff;}</style></defs><path class="cls-1" d="M80.28,489.94c-9.27-2-17.78-5.49-24.43-12.63-8.12-8.72-11-19.22-11-30.86q0-196,0-392c0-.94,0-1.87,0-2.81.68-16.41,7.52-29.32,22.66-36.38A46.48,46.48,0,0,1,86.39,11q150.18-.37,300.37-.14c24.26,0,41.31,17.25,41.53,41.69.16,18.55,0,37.11,0,55.66q0,169.11,0,338.21c0,17.74-6.86,31.45-23.13,39.5-3.83,1.89-8.21,2.69-12.34,4Zm332-239.55q0-98,0-196c0-17.94-9.55-27.57-27.33-27.57q-148.56,0-297.11,0c-17.28,0-27.07,9.69-27.07,26.89q0,196.73,0,393.44A36.29,36.29,0,0,0,62,456.82C65.15,467.93,74.44,474,87.91,474H383.62c19.52,0,28.71-9.13,28.71-28.53Z" transform="translate(-44.81 -10.83)"/><path class="cls-1" d="M372.3,250.51c0,36.63.06,73.26,0,109.9,0,16.88-7.17,30-22.54,37.35a44.51,44.51,0,0,1-18.44,4.11q-94.73.44-189.44.13c-23.9-.06-40.94-17.19-41-41.11q-.16-110.61,0-221.21c0-23.66,17.08-40.81,40.72-40.87q94.95-.25,189.91,0c23.83.06,40.68,17.33,40.75,41.33C372.39,176.93,372.3,213.72,372.3,250.51Zm-36.51,31.4c-18.12,54.73-73.94,80.62-122.77,69.71C170,342,135.49,302,132.94,256.46c-2.62-46.65,26.78-90.25,70.21-104.35,23.54-7.64,47-7.66,70.07,1.26,30.87,11.93,51.4,34.17,62.41,65.55l20.73-6.42c0-24.2,0-47.9,0-71.59,0-16.41-9.81-26.2-26.21-26.21q-93.58,0-187.16,0c-16.39,0-26.18,9.82-26.19,26.23q0,109.47,0,218.94c0,16.41,9.8,26.22,26.19,26.22q93.59,0,187.16,0c16.41,0,26.19-9.8,26.21-26.21q.06-33.67,0-67.36V288.2Zm-68.88-21.2c-9.12,17.12-21.79,24.12-37.1,20.82-13.77-3-24.25-14.83-25.11-28.43-.93-14.72,7.5-28,20.79-32.64a31.45,31.45,0,0,1,20.65-.43c10.12,3.3,16.72,10.4,20.71,20.08l52.92-16.31c-9-33.54-46.6-66.73-95.69-60.42-42.44,5.45-76.32,44.75-75.39,88.27,1,46.31,36.66,83.83,83,86.41,47.19,2.63,80.49-31.26,88-61.1Zm-30.46,5.59A15.9,15.9,0,1,0,220.67,250,15.91,15.91,0,0,0,236.45,266.3ZM356.2,229.4c-2.38.71-4.3,1.23-6.2,1.84-3.39,1.1-8.09,1.3-9.78,3.65s-.11,6.75,0,10.27c0,.62.08,1.24.08,1.87v19.54l15.88,4.83Zm-32.37,9.88-34.35,10.61,0,1.05,34.3,10.56Z" transform="translate(-44.81 -10.83)"/><path class="cls-1" d="M92.92,74.45H77.09V43h31.42v15.6H92.92Z" transform="translate(-44.81 -10.83)"/><path class="cls-1" d="M396,74.42H380.33V58.68H364.69V43H396Z" transform="translate(-44.81 -10.83)"/><path class="cls-1" d="M92.8,426.42v15.64h15.73v15.68H77.1V426.42Z" transform="translate(-44.81 -10.83)"/><path class="cls-1" d="M396,457.8H364.65V442.22H380.2V426.51H396Z" transform="translate(-44.81 -10.83)"/></svg>