<svg id="artwork" xmlns="http://www.w3.org/2000/svg" viewBox="0 0 20 20"><defs><style>.cls-1{fill:#0083db;}</style></defs><title>profile_save</title><polygon class="cls-1" points="17.85 13.85 17.15 13.15 15 15.29 15 10 14 10 14 15.29 11.85 13.15 11.15 13.85 14.5 17.21 17.85 13.85"/><polygon class="cls-1" points="18 16 18 18 11 18 11 16 10 16 10 19 19 19 19 16 18 16"/><path d="M2.55,18.5h-1c0-3.13,2-5.26,5.49-6v-.05a3.48,3.48,0,0,0,0-.57A7.61,7.61,0,0,1,5.79,9.94a2.45,2.45,0,0,1-1.2-1.73,1.72,1.72,0,0,1,.06-1.14,1.1,1.1,0,0,1,.59-.55C5.35,4.29,5.74,1,10,1c4.53,0,4.7,3.69,4.8,5.9l-1,0C13.68,4.14,13.32,2,10,2S6.35,4.14,6.22,6.94l0,.5-.5,0c-.12,0-.14.06-.15.08a.79.79,0,0,0,0,.48,1.85,1.85,0,0,0,.55,1l.41-.08.09.39a6.41,6.41,0,0,0,1.24,2l.1.11,0,.15a5.19,5.19,0,0,1,.07.87c0,.18,0,.35,0,.51l0,.38-.37.06C5.3,13.8,2.55,15,2.55,18.5Z"/></svg>