<svg id="Capa_1" enable-background="new 0 0 512 512" height="512" viewBox="0 0 512 512" width="512" xmlns="http://www.w3.org/2000/svg"><g><path d="m512 181.38c0-33.935-27.662-61.543-61.664-61.543s-61.664 27.608-61.664 61.543c0 6.131.903 12.056 2.583 17.648l-35.807 23.3-58.361-115.385c12.33-11.26 20.075-27.445 20.075-45.4.001-33.935-27.662-61.543-61.663-61.543s-61.664 27.608-61.664 61.543c0 18.035 7.813 34.284 20.239 45.55l-57.589 115.192-35.741-23.257c1.68-5.593 2.583-11.517 2.583-17.648 0-33.935-27.662-61.543-61.664-61.543-34.001 0-61.663 27.608-61.663 61.543 0 30.418 22.226 55.753 51.322 60.677l10.232 138.943h-30.994v30h33.204l5.229 71h-28.414v30h430.841v-30h-28.413l5.229-71h33.204v-30h-30.994l10.232-138.942c29.095-4.924 51.322-30.259 51.322-60.678zm-256.501-151.38c17.427 0 31.605 14.15 31.605 31.543s-14.178 31.543-31.605 31.543-31.605-14.15-31.605-31.543 14.178-31.543 31.605-31.543zm-193.835 182.924c-17.427 0-31.605-14.15-31.605-31.543s14.178-31.543 31.605-31.543 31.605 14.15 31.605 31.543-14.178 31.543-31.605 31.543zm351.205 269.076h-313.738l-5.229-71h324.194zm7.438-101h-328.614l-10.403-141.271c9.154-3.075 17.355-8.24 24.03-14.924l63.004 40.997 72.259-144.535c4.778 1.189 9.775 1.821 14.917 1.821 5.22 0 10.29-.651 15.134-1.875l73.11 144.547 62.938-40.954c6.675 6.684 14.875 11.849 24.029 14.924zm30.029-168.076c-17.427 0-31.605-14.15-31.605-31.543s14.178-31.543 31.605-31.543 31.605 14.15 31.605 31.543-14.178 31.543-31.605 31.543z"/></g></svg>