<svg id="Capa_1" enable-background="new 0 0 512 512" height="512" viewBox="0 0 512 512" width="512" xmlns="http://www.w3.org/2000/svg"><g><path d="m407.362 62.649c-40.43-40.4-94.185-62.649-151.362-62.649s-110.932 22.249-151.362 62.649-62.696 94.114-62.696 151.248c0 39.978 11.086 80.454 32.95 120.3 17.196 31.339 41.077 62.362 70.979 92.207 50.542 50.445 100.443 79.921 102.543 81.151l7.586 4.445 7.587-4.445c2.1-1.23 52.001-30.707 102.543-81.151 29.902-29.845 53.783-60.868 70.979-92.207 21.864-39.847 32.95-80.322 32.95-120.3 0-57.135-22.267-110.849-62.697-151.248zm-61.947 342.06c-36.684 36.714-73.846 62.215-89.415 72.247-15.569-10.033-52.731-35.533-89.415-72.247-43.176-43.213-94.644-111.396-94.644-190.812 0-101.414 82.569-183.92 184.059-183.92s184.059 82.506 184.059 183.919c0 79.417-51.468 147.599-94.644 190.813z"/><path d="m256 123.472c-48.188 0-87.391 39.174-87.391 87.325s39.204 87.325 87.391 87.325 87.391-39.174 87.391-87.325-39.203-87.325-87.391-87.325zm0 144.672c-31.646 0-57.391-25.726-57.391-57.348s25.746-57.348 57.391-57.348 57.391 25.726 57.391 57.348-25.745 57.348-57.391 57.348z"/></g></svg>