<svg id="Capa_1" enable-background="new 0 0 512 512" height="512" viewBox="0 0 512 512" width="512" xmlns="http://www.w3.org/2000/svg"><g><path d="m511.792 163.03c-1.809-38.71-17.302-74.926-43.626-101.975-26.534-27.265-61.303-42.45-97.904-42.757h-.126c-31.073 0-59.409 11.23-84.219 33.377-10.805 9.646-20.818 21.272-29.917 34.722-9.1-13.45-19.111-25.076-29.917-34.722-24.811-22.147-53.147-33.377-84.22-33.377h-.126c-36.6.308-71.37 15.493-97.904 42.757-26.324 27.049-41.817 63.265-43.624 101.961-2.458 51.57 16.877 109.884 54.444 164.2 43.551 62.968 110.767 119.289 194.382 162.872l6.933 3.614 6.934-3.614c83.619-43.586 150.846-99.905 194.412-162.87 37.584-54.317 56.931-112.629 54.478-164.188zm-79.149 147.119c-39.609 57.243-100.591 108.881-176.675 149.671-76.078-40.788-137.049-92.423-176.642-149.669-33.842-48.931-51.298-100.677-49.151-145.721 3.018-64.596 52.093-115.594 111.744-116.132 50.675.03 82.807 40.398 100.842 74.266l13.239 24.863 13.24-24.863c18.034-33.868 50.167-74.236 100.841-74.266 59.651.539 108.727 51.537 111.745 116.133v.014c2.146 45.02-15.32 96.765-49.183 145.704z"/></g></svg>