<svg id="Capa_1" enable-background="new 0 0 512 512" height="512" viewBox="0 0 512 512" width="512" xmlns="http://www.w3.org/2000/svg"><g><path d="m211 512h90v-90h-90zm30-60h30v30h-30z"/><path d="m211 90h90v-90h-90zm30-60h30v30h-30z"/><path d="m90 211h-90v90h90zm-30 60h-30v-30h30z"/><path d="m422 211v90h90v-90zm60 60h-30v-30h30z"/><path d="m43.161 405.2 63.64 63.64 63.64-63.64-63.64-63.64zm63.639 21.213-21.213-21.213 21.213-21.213 21.213 21.213z"/><path d="m43.161 106.8 63.64 63.64 63.64-63.64-63.64-63.64zm63.639 21.214-21.213-21.214 21.213-21.213 21.213 21.213z"/><path d="m341.56 405.2 63.64 63.64 63.64-63.64-63.64-63.64zm63.64 21.213-21.214-21.213 21.213-21.213 21.213 21.213z"/><path d="m241 241h30v30h-30z"/><path d="m171 241h30v30h-30z"/><path d="m311 241h30v30h-30z"/></g></svg>