<svg id="Capa_1" enable-background="new 0 0 512 512" height="512" viewBox="0 0 512 512" width="512" xmlns="http://www.w3.org/2000/svg"><g><path d="m452.372 59.629c-79.504-79.505-208.868-79.505-288.372 0-75.936 75.937-79.343 197.357-10.222 277.375l-39.107 39.107-25.688-25.688-73.972 73.973c-20.014 20.014-20.014 52.58 0 72.594 10.007 10.006 23.152 15.01 36.296 15.01 13.145 0 26.29-5.004 36.297-15.011l73.973-73.972-25.688-25.688 39.107-39.107c38.129 32.937 85.659 49.406 133.19 49.406 52.217 0 104.434-19.876 144.185-59.628 79.505-79.504 79.505-208.867.001-288.371zm-385.985 416.142c-4.028 4.027-9.383 6.246-15.079 6.246s-11.051-2.218-15.079-6.246c-4.027-4.028-6.246-9.383-6.246-15.079s2.218-11.051 6.246-15.079l52.754-52.754 30.157 30.157zm364.767-148.989c-67.805 67.803-178.13 67.805-245.936 0-67.804-67.805-67.804-178.131 0-245.936 33.902-33.902 78.435-50.853 122.968-50.853 44.532 0 89.065 16.951 122.968 50.853 67.804 67.805 67.804 178.131 0 245.936z"/><path d="m308.186 63.665c-77.278 0-140.149 62.871-140.149 140.149s62.871 140.149 140.149 140.149 140.149-62.871 140.149-140.149-62.871-140.149-140.149-140.149zm0 250.291c-60.732 0-110.142-49.409-110.142-110.142s49.41-110.142 110.142-110.142 110.142 49.409 110.142 110.142-49.409 110.142-110.142 110.142z"/></g></svg>