<svg id="Capa_1" enable-background="new 0 0 512 512" height="512" viewBox="0 0 512 512" width="512" xmlns="http://www.w3.org/2000/svg"><g><path d="m422.575 368.46 31.83 31.673h-90.325l-88.09-140.254 88.314-148.013h90.1l-31.83 31.673 21.143 21.271 68.283-67.943-68.282-67.944-21.143 21.271 31.83 31.673h-107.12l-89.202 149.5-93.897-149.5h-74.234v-30h-89.952v90h89.952v-30h57.663l93.215 148.415-83.445 139.852h-67.433v-30h-89.952v90h89.952v-30h84.453l84.333-141.339 88.771 141.339h106.896l-31.83 31.673 21.143 21.271 68.282-67.945-68.282-67.944zm-362.607-256.593h-29.984v-30h29.984zm0 318.266h-29.984v-30h29.984z"/></g></svg>