<svg id="Capa_1" enable-background="new 0 0 512 512" height="512" viewBox="0 0 512 512" width="512" xmlns="http://www.w3.org/2000/svg"><g><path d="m323.189 144.724h-30.007v44.147h-44.154v30.001h44.154v44.147h30.007v-44.147h44.155v-30.001h-44.155z"/><path d="m452.372 59.713c-38.513-38.507-89.719-59.713-144.186-59.713-54.466 0-105.672 21.206-144.185 59.713-38.514 38.506-59.725 89.703-59.725 144.159 0 49.425 17.474 96.165 49.498 133.17l-39.103 39.095-25.688-25.684-73.972 73.959c-20.014 20.01-20.014 52.57 0 72.58 10.007 10.005 23.152 15.008 36.296 15.008s26.289-5.003 36.297-15.008l73.972-73.959-25.687-25.683 39.108-39.1c38.13 32.931 85.659 49.397 133.19 49.397 52.216 0 104.434-19.872 144.185-59.617 79.504-79.489 79.504-208.828 0-288.317zm-385.986 416.065c-4.028 4.027-9.383 6.244-15.079 6.244s-11.051-2.218-15.079-6.244c-4.027-4.027-6.246-9.381-6.246-15.076s2.218-11.049 6.246-15.076l52.755-52.744 30.157 30.152zm364.768-148.961c-67.806 67.792-178.132 67.791-245.936 0-32.846-32.84-50.936-76.503-50.936-122.945 0-46.443 18.09-90.105 50.936-122.945 32.846-32.839 76.517-50.925 122.967-50.925 46.451 0 90.123 18.086 122.968 50.925 67.805 67.792 67.805 178.097.001 245.89z"/><path d="m308.186 63.749c-77.279 0-140.149 62.859-140.149 140.123s62.87 140.123 140.149 140.123 140.149-62.859 140.149-140.123-62.87-140.123-140.149-140.123zm0 250.244c-60.733 0-110.142-49.4-110.142-110.121s49.409-110.122 110.142-110.122 110.142 49.4 110.142 110.121-49.409 110.122-110.142 110.122z"/></g></svg>