<svg id="Capa_1" enable-background="new 0 0 512 512" height="512" viewBox="0 0 512 512" width="512" xmlns="http://www.w3.org/2000/svg"><g><path d="m478.405 292.86c23.818-44.224 35.334-88.887 33.382-129.83-1.809-38.71-17.301-74.926-43.625-101.975-26.534-27.265-61.303-42.45-97.903-42.757h-.126c-31.073 0-59.408 11.23-84.219 33.377-10.805 9.646-20.817 21.272-29.916 34.722-9.1-13.452-19.11-25.076-29.917-34.722-24.811-22.147-53.147-33.377-84.219-33.377h-.126c-36.599.308-71.369 15.493-97.903 42.757-26.324 27.049-41.817 63.265-43.624 101.961-2.458 51.57 16.877 109.884 54.443 164.2 43.551 62.968 110.766 119.289 194.38 162.872l6.933 3.614 6.933-3.614c22.888-11.93 44.68-24.863 64.945-38.535 19.573 18.321 45.86 29.553 74.721 29.553 60.339 0 109.429-49.091 109.429-109.431 0-30.925-12.894-58.894-33.588-78.815zm-222.44 166.961c-76.077-40.788-137.047-92.424-176.64-149.669-33.842-48.932-51.297-100.678-49.151-145.722 3.018-64.596 52.093-115.594 111.743-116.132 50.674.03 82.806 40.398 100.841 74.266l13.24 24.863 13.24-24.863c18.034-33.868 50.167-74.236 100.841-74.266 59.65.539 108.725 51.537 111.744 116.147 1.615 33.896-8.249 72.689-27.941 110.596-15.314-8.165-32.784-12.796-51.316-12.796-60.339 0-109.429 49.091-109.429 109.431 0 20.651 5.751 39.985 15.734 56.484-16.644 11.117-34.365 21.724-52.906 31.661zm146.599-8.715c-43.798 0-79.429-35.633-79.429-79.431s35.632-79.431 79.429-79.431c43.798 0 79.43 35.633 79.43 79.431s-35.632 79.431-79.43 79.431z"/><path d="m362.565 356.675h79.999v30h-79.999z"/></g></svg>