<svg id="Capa_1" enable-background="new 0 0 512 512" height="512" viewBox="0 0 512 512" width="512" xmlns="http://www.w3.org/2000/svg"><g><path d="m480.233 31.811c-20.516-20.514-47.796-31.811-76.813-31.811-29.016 0-56.296 11.297-76.813 31.811l-127.772 127.746 66.205 66.192-39.297 39.289-66.205-66.192-127.772 127.747c-42.354 42.347-42.354 111.25.001 153.596 20.516 20.514 47.796 31.811 76.813 31.811 29.016 0 56.295-11.297 76.813-31.811l127.772-127.746-66.205-66.192 39.297-39.289 66.205 66.192 127.773-127.747c42.354-42.347 42.354-111.25-.002-153.596zm-209.503 320.632-106.554 106.533c-15.33 15.327-35.46 22.989-55.597 22.987-20.131-.002-40.27-7.665-55.596-22.987-30.655-30.65-30.655-80.52 0-111.17l106.556-106.533 44.987 44.978-21.217 21.213-23.77-23.765-85.337 85.32c-9.183 9.181-14.24 21.388-14.24 34.372s5.058 25.191 14.24 34.372c9.181 9.181 21.391 14.237 34.378 14.237 12.986 0 25.195-5.056 34.378-14.237l85.337-85.32-23.77-23.765 21.218-21.213zm-84.869 0-64.12 64.107c-3.515 3.515-8.189 5.45-13.161 5.45-4.973 0-9.646-1.936-13.162-5.45-3.515-3.515-5.451-8.188-5.451-13.159s1.936-9.644 5.451-13.159l64.12-64.106zm273.156-188.249-106.555 106.533-44.987-44.978 21.217-21.213 23.77 23.765 85.337-85.32c18.957-18.953 18.957-49.791 0-68.743-18.956-18.952-49.801-18.953-68.757 0l-85.337 85.32 23.77 23.765-21.218 21.213-44.988-44.979 106.555-106.533c30.656-30.649 80.536-30.65 111.193 0 30.655 30.65 30.655 80.52 0 111.17zm-132.878-4.637 64.12-64.107c7.258-7.255 19.066-7.254 26.323 0 7.257 7.256 7.257 19.062 0 26.317l-64.12 64.106z"/></g></svg>