<svg id="Capa_1" enable-background="new 0 0 512 512" height="512" viewBox="0 0 512 512" width="512" xmlns="http://www.w3.org/2000/svg"><g><path d="m470.5 348.891-50.619-47.642v-132.182c0-76.682-64.704-139.067-144.237-139.067h-4.644v-30h-30v30h-4.644c-79.533 0-144.237 62.385-144.237 139.067v132.183l-50.619 47.641v90.884h133.674c4.542 40.576 39.058 72.225 80.826 72.225s76.284-31.649 80.826-72.225h133.674zm-234.144-288.891h39.287c62.99 0 114.237 48.927 114.237 109.067v123.663h-267.761v-123.663c0-60.14 51.247-109.067 114.237-109.067zm19.644 422c-25.197 0-46.213-18.25-50.524-42.225h101.047c-4.31 23.975-25.326 42.225-50.523 42.225zm184.5-72.225h-369v-47.922l41.567-39.123h285.865l41.568 39.123z"/></g></svg>