<svg id="Capa_1" enable-background="new 0 0 512 512" height="512" viewBox="0 0 512 512" width="512" xmlns="http://www.w3.org/2000/svg"><g><path d="m256 186.5c-33.084 0-60 26.916-60 60s26.916 60 60 60 60-26.916 60-60-26.916-60-60-60zm0 90c-16.542 0-30-13.458-30-30s13.458-30 30-30 30 13.458 30 30-13.458 30-30 30z"/><path d="m370.697 141.803-10.606-10.606-21.213 21.213 10.606 10.606c24.837 24.837 38.516 57.859 38.516 92.984s-13.679 68.147-38.516 92.984l-10.606 10.606 21.213 21.213 10.606-10.606c30.504-30.503 47.303-71.059 47.303-114.197s-16.799-83.694-47.303-114.197z"/><path d="m434.236 68.264-10.606-10.607-21.213 21.213 10.606 10.606c44.481 44.481 68.977 103.62 68.977 166.524s-24.496 122.043-68.977 166.523l-10.606 10.606 21.213 21.213 10.606-10.606c50.147-50.146 77.764-116.818 77.764-187.736s-27.617-137.59-77.764-187.736z"/><path d="m173.122 152.409-21.213-21.213-10.606 10.606c-62.968 62.969-62.968 165.426 0 228.395l10.606 10.606 21.213-21.213-10.607-10.606c-51.271-51.271-51.271-134.697 0-185.969z"/><path d="m98.976 89.477 10.607-10.606-21.213-21.214-10.607 10.607c-50.146 50.146-77.763 116.818-77.763 187.736s27.617 137.59 77.763 187.736l10.606 10.606 21.213-21.213-10.607-10.606c-91.82-91.821-91.82-241.225.001-333.046z"/></g></svg>