<svg id="Capa_1" enable-background="new 0 0 512 512" height="512" viewBox="0 0 512 512" width="512" xmlns="http://www.w3.org/2000/svg"><g><path d="m481.913 167.347c.636-4.853.957-9.751.957-14.644 0-61.782-50.263-112.046-112.043-112.046-5.734 0-11.458.436-17.098 1.3-29.628-27.117-67.616-41.957-107.845-41.957-38.167 0-75.178 13.755-104.212 38.731-25.648 22.063-43.803 51.71-51.914 84.432-22.699 2.936-43.664 13.374-59.999 30.075-19.191 19.62-29.759 45.621-29.759 73.211 0 57.423 46.221 104.139 103.034 104.139h89.891v75.738l-32.903-32.971-21.235 21.192 117.213 117.453 117.213-117.452-21.235-21.192-32.903 32.971v-75.738h99.889c51.3 0 93.036-42.176 93.036-94.015 0-26.703-10.86-51.455-30.087-69.227zm-192.838 269.041-33.075 33.143-33.075-33.143v-215.627h66.15zm129.889-135.8h-99.889v-109.828h-126.15v109.828h-89.891c-40.271 0-73.034-33.258-73.034-74.139 0-40.463 32.418-73.719 72.266-74.134l12.514-.13 2.114-12.335c10.912-63.652 65.16-109.85 128.99-109.85 34.861 0 67.669 13.742 92.381 38.694l5.883 5.941 8.146-1.88c6.035-1.393 12.27-2.099 18.531-2.099 45.239 0 82.043 36.805 82.043 82.045 0 5.853-.625 11.713-1.857 17.419l-2.018 9.346 7.62 5.776c16.134 12.23 25.387 30.938 25.387 51.331 0 35.298-28.278 64.015-63.036 64.015z"/></g></svg>