<svg id="Capa_1" enable-background="new 0 0 512 512" height="512" viewBox="0 0 512 512" width="512" xmlns="http://www.w3.org/2000/svg"><g><path d="m402.569 253.138c-8.309 0-16.405.931-24.188 2.694v-86.765c0-76.681-64.704-139.067-144.237-139.067h-4.644v-30h-30v30h-4.644c-79.532 0-144.236 62.386-144.236 139.067v132.182l-50.62 47.642v90.885h133.674c4.542 40.575 39.057 72.224 80.826 72.224 41.768 0 76.284-31.649 80.826-72.225h29.764c19.826 19.896 47.24 32.225 77.479 32.225 60.34 0 109.431-49.091 109.431-109.431s-49.091-109.431-109.431-109.431zm-207.713-193.138h39.288c62.991 0 114.237 48.928 114.237 109.067v98.453c-11.453 6.555-21.613 15.119-29.999 25.21h-237.762v-123.663c0-60.139 51.246-109.067 114.236-109.067zm19.644 422c-25.198 0-46.213-18.249-50.524-42.225h101.048c-4.311 23.976-25.326 42.225-50.524 42.225zm-184.5-72.225v-47.922l41.568-39.123h229.076c-4.845 12.352-7.506 25.79-7.506 39.839 0 16.894 3.849 32.906 10.715 47.206zm372.569 32.225c-43.799 0-79.432-35.633-79.432-79.431 0-43.799 35.633-79.432 79.432-79.432 43.798 0 79.431 35.633 79.431 79.432 0 43.798-35.633 79.431-79.431 79.431z"/><path d="m362.569 347.569h80v30h-80z"/></g></svg>