<svg id="Capa_1" enable-background="new 0 0 512 512" height="512" viewBox="0 0 512 512" width="512" xmlns="http://www.w3.org/2000/svg"><g><path d="m481.913 167.344c.636-4.853.957-9.751.957-14.644 0-61.781-50.263-112.044-112.043-112.044-5.734 0-11.458.436-17.098 1.3-29.628-27.116-67.616-41.956-107.845-41.956-38.167 0-75.178 13.755-104.212 38.73-25.648 22.063-43.803 51.709-51.914 84.431-22.699 2.936-43.664 13.374-59.999 30.074-19.191 19.62-29.759 45.62-29.759 73.21 0 57.422 46.221 104.138 103.034 104.138h89.891v181.417h126.15v-181.417h99.889c51.3 0 93.036-42.175 93.036-94.014 0-26.702-10.86-51.453-30.087-69.225zm-258.988 314.656v-304.616l33.075-33.374 33.075 33.375v304.615zm196.039-181.417h-99.889v-92.927l32.829 33.126 21.309-21.117-117.213-118.274-117.213 118.274 21.309 21.117 32.829-33.126v92.927h-89.891c-40.271 0-73.034-33.258-73.034-74.138 0-40.462 32.418-73.718 72.266-74.133l12.514-.13 2.114-12.335c10.912-63.65 65.16-109.847 128.99-109.847 34.861 0 67.669 13.742 92.381 38.693l5.883 5.941 8.146-1.88c6.035-1.393 12.27-2.099 18.531-2.099 45.239 0 82.043 36.805 82.043 82.044 0 5.853-.625 11.713-1.857 17.419l-2.018 9.346 7.62 5.775c16.134 12.23 25.387 30.938 25.387 51.33 0 35.297-28.278 64.014-63.036 64.014z"/></g></svg>