<svg id="Capa_1" enable-background="new 0 0 512 512" height="512" viewBox="0 0 512 512" width="512" xmlns="http://www.w3.org/2000/svg"><g><path d="m472 110v-30h-30v30h-61.109l-30-70h-189.782l-30 70h-51.109v-30h-30v30h-50v362h512v-362zm10 332h-452v-302h120.891l30-70h150.218l30 70h120.891z"/><path d="m256 145c-72.234 0-131 58.767-131 131s58.766 131 131 131c72.233 0 131-58.767 131-131s-58.767-131-131-131zm0 232c-55.691 0-101-45.309-101-101s45.309-101 101-101 101 45.309 101 101-45.309 101-101 101z"/><path d="m256 214.554c-33.084 0-60 26.916-60 60s26.916 60 60 60 60-26.916 60-60-26.916-60-60-60zm0 90c-16.542 0-30-13.458-30-30s13.458-30 30-30 30 13.458 30 30-13.458 30-30 30z"/></g></svg>