<svg id="Capa_1" enable-background="new 0 0 512 512" height="512" viewBox="0 0 512 512" width="512" xmlns="http://www.w3.org/2000/svg"><g><path d="m482 482h-130v30h160v-160h-30z"/><path d="m30 30h130v-30h-160v160h30z"/><path d="m352 0v30h130v130h30v-160z"/><path d="m30 352h-30v160h160v-30h-130z"/><path d="m61 211h150v-150h-150zm30-120h90v90h-90z"/><path d="m61 450.5h150v-149h-150zm30-119h90v89h-90z"/><path d="m451 61h-150v150h150zm-30 120h-90v-90h90z"/><path d="m451 301h-150v150h150zm-30 120h-90v-90h90z"/><path d="m121 121h30v30h-30z"/><path d="m121 361h30v30h-30z"/><path d="m361 361h30v30h-30z"/><path d="m361 121h30v30h-30z"/><path d="m445.75 271v-30h-174.75v-180h-30v180h-174.75v30h174.75v180h30v-180z"/></g></svg>