<svg id="Capa_1" enable-background="new 0 0 512 512" height="512" viewBox="0 0 512 512" width="512" xmlns="http://www.w3.org/2000/svg"><g><path d="m256 105.99c-72.234 0-131 58.761-131 130.988s58.766 130.988 131 130.988c72.233 0 131-58.761 131-130.988s-58.767-130.988-131-130.988zm0 231.979c-55.691 0-101-45.304-101-100.991s45.309-100.991 101-100.991 101 45.304 101 100.991-45.309 100.991-101 100.991z"/><path d="m240.809 245.494-18.47-18.469-21.213 21.211 39.683 39.68 70.065-70.059-21.213-21.211z"/><path d="m455.969 83.961c-38.03 0-68.969-30.937-68.969-68.962v-14.999h-262v14.999c0 38.026-30.939 68.962-68.968 68.962h-15v311.982l214.968 116.057 214.968-116.057v-311.982zm-15 294.087-184.969 99.861-184.969-99.861v-265.224c42.583-6.502 76.33-40.246 82.834-82.826h204.269c6.504 42.58 40.25 76.324 82.834 82.826v265.224z"/></g></svg>