<svg id="Capa_1" enable-background="new 0 0 512 512" height="512" viewBox="0 0 512 512" width="512" xmlns="http://www.w3.org/2000/svg"><g><path d="m339.958 44.293-21.178 21.234 44.893 44.831h-106.97c-68.568 0-133.031 26.719-181.516 75.235s-75.187 113.024-75.187 181.636v100.478h29.981c0-42.675 20.083-78.832 58.076-104.561 37.183-25.181 89.87-39.048 148.356-39.048h124.997l-42.629 42.57 21.178 21.234 172.041-171.804zm-103.546 249.805c-64.412 0-123.068 15.698-165.159 44.202-16.479 11.16-30.301 24.1-41.272 38.613v-9.685c0-125.097 101.707-226.87 226.722-226.87h137.012l75.844 75.739-78.108 78h-155.039z"/></g></svg>