<svg id="Capa_1" enable-background="new 0 0 512 512" height="512" viewBox="0 0 512 512" width="512" xmlns="http://www.w3.org/2000/svg"><g><path d="m437.02 74.98c-48.353-48.351-112.64-74.98-181.02-74.98s-132.667 26.629-181.02 74.98c-48.351 48.353-74.98 112.64-74.98 181.02s26.629 132.667 74.98 181.02c48.353 48.351 112.64 74.98 181.02 74.98v-30c-124.617 0-226-101.383-226-226s101.383-226 226-226 226 101.383 226 226v76.456c0 21.973-17.876 39.849-39.848 39.849s-39.848-17.876-39.848-39.849v-190.238h-30v25.117c-26.756-35.012-68.937-57.639-116.305-57.639-80.672 0-146.304 65.632-146.304 146.305s65.633 146.304 146.305 146.304c47.886 0 90.472-23.125 117.178-58.793 5.314 33.28 34.221 58.793 68.974 58.793 38.514 0 69.848-31.334 69.848-69.849v-76.456c0-68.38-26.629-132.667-74.98-181.02zm-181.02 297.325c-64.13 0-116.304-52.174-116.304-116.305s52.174-116.305 116.304-116.305c64.131 0 116.305 52.174 116.305 116.305s-52.174 116.305-116.305 116.305z"/></g></svg>