<svg id="Capa_1" enable-background="new 0 0 512 512" height="512" viewBox="0 0 512 512" width="512" xmlns="http://www.w3.org/2000/svg"><g><path d="m110.935 0c-33.048 0-59.935 26.887-59.935 59.935v392.131c0 33.047 26.887 59.934 59.935 59.934h350.065v-30h-30v-59.869h30v-422.131zm290.065 482h-290.065c-16.506 0-29.935-13.429-29.935-29.935s13.429-29.935 29.935-29.935h290.065zm-290.065-89.869c-10.896 0-21.121 2.923-29.935 8.025v-340.221c0-16.506 13.429-29.935 29.935-29.935h320.065v362.131z"/><path d="m168 134.913v90h180v-90zm150 60h-120v-30h120z"/><path d="m188 254.435h140v30h-140z"/></g></svg>